<svg width="527" height="179" viewBox="0 0 527 179" fill="none" xmlns="http://www.w3.org/2000/svg">
    <g filter="url(#filter0_d_102_99)">
        <path fill-rule="evenodd" clip-rule="evenodd"
            d="M80.2947 36.24C76.4564 36.6104 72.948 37.6187 69.5421 39.3302C55.9892 46.1409 45.1386 63.6649 41.379 84.8148C40.697 88.6513 40.3179 91.9373 40.0835 96.0424C39.92 98.9085 40.008 104.659 40.2486 106.811C41.2479 115.754 44.0468 122.555 48.7222 127.4C51.447 130.224 54.483 132.145 58.132 133.353C60.9741 134.295 63.5383 134.684 66.8938 134.684C73.3294 134.684 78.0396 133.047 83.0213 129.081C85.3477 127.229 88.9016 123.43 91.5185 119.998C96.1586 113.913 99.1655 109.044 108.807 92.0008L114.114 82.6201L115.267 84.5208C116.763 86.9871 122.098 95.894 125.334 101.326C133.42 114.904 138.113 121.528 143.163 126.49C148.188 131.427 152.861 133.793 159.022 134.519C160.671 134.713 164.065 134.738 165.631 134.568C169.893 134.104 173.71 132.647 176.86 130.282C177.922 129.484 179.901 127.564 180.777 126.481C184.373 122.036 186.791 115.662 187.713 108.197C188.413 102.537 188.331 95.41 187.488 88.5825C185.05 68.8358 176.433 51.609 164.506 42.637C157.35 37.2545 149.186 35.1326 141.557 36.6724C133.546 38.2893 125.759 44.2677 117.46 55.1718C116.857 55.9642 116.303 56.6794 116.229 56.761C116.12 56.8817 115.863 56.6236 114.865 55.3884C103.998 41.9435 94.1962 36.0857 82.7319 36.1849C81.6046 36.1946 80.5079 36.2194 80.2947 36.24ZM148.739 49.1849C152.612 50.0484 156.131 52.1698 159.547 55.7009C161.858 58.089 163.692 60.6022 165.47 63.8154C170.185 72.3378 172.925 82.4064 173.898 94.7881C174.114 97.5325 174.081 104.39 173.844 106.147C172.878 113.309 170.216 117.269 165.596 118.416C164.288 118.74 161.829 118.763 160.534 118.461C157.102 117.664 154.686 115.642 150.588 110.136C147.612 106.138 141.261 96.1387 134.119 84.2053C128.69 75.1343 126.862 72.1889 124.126 68.1005L123.36 66.9558L124.628 65.0531C131.091 55.3593 136.654 50.3877 142.434 49.1395C143.338 48.9443 143.775 48.9198 145.693 48.9569C147.216 48.9863 148.167 49.0575 148.739 49.1849ZM84.8355 52.4693C89.1762 53.0722 92.8746 55.1814 97.2452 59.5465C99.8337 62.1317 102.318 65.1334 105.281 69.2555L106.53 70.9927L106.166 71.5596C105.965 71.8714 104.539 74.0713 102.998 76.4483C99.2353 82.2491 95.9017 87.4412 92.2541 93.1813C88.3241 99.3658 87.2951 100.939 85.0777 104.152C78.7492 113.322 74.9996 117.057 70.9561 118.219C67.8775 119.104 64.7108 118.778 62.2247 117.32C61.3016 116.778 59.7842 115.291 59.0897 114.246C57.5618 111.949 56.5689 108.835 56.1362 104.983C55.9569 103.387 55.9577 98.1009 56.1376 95.8408C57.3779 80.2587 62.7499 66.0704 70.3757 58.235C73.9157 54.5979 77.1987 52.7964 81.1807 52.3061C81.7316 52.2382 83.8543 52.3331 84.8355 52.4693Z"
            fill="url(#paint0_linear_102_99)" />
        <path fill-rule="evenodd" clip-rule="evenodd"
            d="M80.2947 36.24C76.4564 36.6104 72.948 37.6187 69.5421 39.3302C55.9892 46.1409 45.1386 63.6649 41.379 84.8148C40.697 88.6513 40.3179 91.9373 40.0835 96.0424C39.92 98.9085 40.008 104.659 40.2486 106.811C41.2479 115.754 44.0468 122.555 48.7222 127.4C51.447 130.224 54.483 132.145 58.132 133.353C60.9741 134.295 63.5383 134.684 66.8938 134.684C73.3294 134.684 78.0396 133.047 83.0213 129.081C85.3477 127.229 88.9016 123.43 91.5185 119.998C96.1586 113.913 99.1655 109.044 108.807 92.0008L114.114 82.6201L115.267 84.5208C116.763 86.9871 122.098 95.894 125.334 101.326C133.42 114.904 138.113 121.528 143.163 126.49C148.188 131.427 152.861 133.793 159.022 134.519C160.671 134.713 164.065 134.738 165.631 134.568C169.893 134.104 173.71 132.647 176.86 130.282C177.922 129.484 179.901 127.564 180.777 126.481C184.373 122.036 186.791 115.662 187.713 108.197C188.413 102.537 188.331 95.41 187.488 88.5825C185.05 68.8358 176.433 51.609 164.506 42.637C157.35 37.2545 149.186 35.1326 141.557 36.6724C133.546 38.2893 125.759 44.2677 117.46 55.1718C116.857 55.9642 116.303 56.6794 116.229 56.761C116.12 56.8817 115.863 56.6236 114.865 55.3884C103.998 41.9435 94.1962 36.0857 82.7319 36.1849C81.6046 36.1946 80.5079 36.2194 80.2947 36.24ZM148.739 49.1849C152.612 50.0484 156.131 52.1698 159.547 55.7009C161.858 58.089 163.692 60.6022 165.47 63.8154C170.185 72.3378 172.925 82.4064 173.898 94.7881C174.114 97.5325 174.081 104.39 173.844 106.147C172.878 113.309 170.216 117.269 165.596 118.416C164.288 118.74 161.829 118.763 160.534 118.461C157.102 117.664 154.686 115.642 150.588 110.136C147.612 106.138 141.261 96.1387 134.119 84.2053C128.69 75.1343 126.862 72.1889 124.126 68.1005L123.36 66.9558L124.628 65.0531C131.091 55.3593 136.654 50.3877 142.434 49.1395C143.338 48.9443 143.775 48.9198 145.693 48.9569C147.216 48.9863 148.167 49.0575 148.739 49.1849ZM84.8355 52.4693C89.1762 53.0722 92.8746 55.1814 97.2452 59.5465C99.8337 62.1317 102.318 65.1334 105.281 69.2555L106.53 70.9927L106.166 71.5596C105.965 71.8714 104.539 74.0713 102.998 76.4483C99.2353 82.2491 95.9017 87.4412 92.2541 93.1813C88.3241 99.3658 87.2951 100.939 85.0777 104.152C78.7492 113.322 74.9996 117.057 70.9561 118.219C67.8775 119.104 64.7108 118.778 62.2247 117.32C61.3016 116.778 59.7842 115.291 59.0897 114.246C57.5618 111.949 56.5689 108.835 56.1362 104.983C55.9569 103.387 55.9577 98.1009 56.1376 95.8408C57.3779 80.2587 62.7499 66.0704 70.3757 58.235C73.9157 54.5979 77.1987 52.7964 81.1807 52.3061C81.7316 52.2382 83.8543 52.3331 84.8355 52.4693Z"
            fill="url(#paint1_radial_102_99)" />
        <path
            d="M129.981 77.4031C111.212 46.878 98.7149 36.1826 82.5923 36.1826L82.3892 52.2208C92.9452 52.2208 101.131 60.5446 118.931 90.5222L120.016 92.3473L129.981 77.4031Z"
            fill="url(#paint2_linear_102_99)" />
    </g>
    <path
        d="M268.633 96.0028L237.253 39.2396H218.799V132.512H233.855V61.0259L261.371 110.527H275.492L303.008 61.0259V132.512H318.067V39.2396H300.013L268.633 96.0028ZM382.59 66.0557C377.815 62.9242 372.119 61.3585 365.501 61.3585C358.84 61.3585 352.944 62.9131 347.813 66.0223C342.683 69.1315 338.674 73.4398 335.788 78.9471C332.9 84.4544 331.457 90.7837 331.457 97.9349C331.457 105 332.934 111.262 335.888 116.723C338.841 122.183 342.961 126.458 348.246 129.548C353.531 132.634 359.661 134.177 366.634 134.178C378.182 134.178 387.931 130.536 395.882 123.252L387.887 113.458C385.045 116.167 382.003 118.187 378.762 119.52C375.52 120.853 371.656 121.519 367.169 121.519C361.574 121.519 356.943 119.887 353.278 116.622C349.613 113.358 347.314 108.883 346.383 103.197H397.482V99.0672C397.482 91.4718 396.194 84.8541 393.618 79.214C391.042 73.5739 387.366 69.1878 382.59 66.0557ZM346.383 92.2055C347.271 86.6537 349.392 82.2342 352.745 78.9471C356.098 75.66 360.262 74.0164 365.237 74.0164C370.345 74.0164 374.475 75.6266 377.629 78.847C380.783 82.0674 382.582 86.5202 383.026 92.2055H346.383ZM430.262 42.6376H415.74V63.0247H401.879V75.3499H415.737V108.328C415.737 125.473 423.576 134.045 439.254 134.044C441.428 134.05 443.599 133.895 445.75 133.578C447.63 133.307 449.489 132.906 451.313 132.378V120.186C449.715 120.453 448.249 120.664 446.917 120.82C445.584 120.976 443.963 121.053 442.053 121.053C437.745 121.053 434.703 119.942 432.927 117.721C431.152 115.501 430.264 111.792 430.262 106.596V75.3499H451.315V63.0247H430.26L430.262 42.6376ZM512.744 63.0247V71.9539C510.3 68.6154 507.074 65.9274 503.349 64.1256C499.574 62.2828 495.31 61.3611 490.558 61.3605C484.251 61.3605 478.665 62.9151 473.803 66.0243C468.94 69.1335 465.131 73.4182 462.377 78.8784C459.622 84.3419 458.245 90.6267 458.246 97.7327C458.246 104.798 459.601 111.071 462.309 116.554C465.018 122.036 468.738 126.344 473.469 129.479C478.199 132.61 483.629 134.176 489.757 134.176C494.729 134.176 499.171 133.187 503.082 131.21C506.994 129.234 510.214 126.425 512.743 122.784V132.511H527V63.0247H512.744ZM512.477 108.195C510.922 112.104 508.39 115.213 504.882 117.522C501.374 119.831 497.377 120.986 492.89 120.986C486.807 120.986 481.988 118.899 478.433 114.724C474.878 110.549 473.102 104.886 473.103 97.7347C473.103 90.6286 474.946 84.9879 478.632 80.8124C482.318 76.6369 487.27 74.5499 493.487 74.5512C497.885 74.5512 501.76 75.6959 505.113 77.9855C508.465 80.275 510.918 83.3953 512.472 87.3464L512.477 108.195Z"
        fill="white" />
    <defs>
        <filter id="filter0_d_102_99" x="0" y="0.182617" width="228.185" height="178.501" filterUnits="userSpaceOnUse"
            color-interpolation-filters="sRGB">
            <feFlood flood-opacity="0" result="BackgroundImageFix" />
            <feColorMatrix in="SourceAlpha" type="matrix" values="0 0 0 0 0 0 0 0 0 0 0 0 0 0 0 0 0 0 127 0"
                result="hardAlpha" />
            <feOffset dy="4" />
            <feGaussianBlur stdDeviation="20" />
            <feComposite in2="hardAlpha" operator="out" />
            <feColorMatrix type="matrix" values="0 0 0 0 0.5 0 0 0 0 0.76 0 0 0 0 1 0 0 0 0.2 0" />
            <feBlend mode="normal" in2="BackgroundImageFix" result="effect1_dropShadow_102_99" />
            <feBlend mode="normal" in="SourceGraphic" in2="effect1_dropShadow_102_99" result="shape" />
        </filter>
        <linearGradient id="paint0_linear_102_99" x1="56.9753" y1="46.3387" x2="188.166" y2="129.253"
            gradientUnits="userSpaceOnUse">
            <stop stop-color="#FFFFFF" />
            <stop offset="0.13599" stop-color="#FFFFFF" />
            <stop offset="0.559391" stop-color="#FFFFFF" />
            <stop offset="0.96875" stop-color="#FFFFFF" />
        </linearGradient>
        <radialGradient id="paint1_radial_102_99" cx="0" cy="0" r="1" gradientUnits="userSpaceOnUse"
            gradientTransform="translate(114.083 72.4885) rotate(90) scale(52.9865 79.7127)">
            <stop stop-color="#FFFFFF" />
            <stop offset="1" stop-color="#FFFFFF" />
        </radialGradient>
        <linearGradient id="paint2_linear_102_99" x1="85.5782" y1="43.0512" x2="125.416" y2="84.2139"
            gradientUnits="userSpaceOnUse">
            <stop stop-color="#FFFFFF" />
            <stop offset="0.660785" stop-color="#FFFFFF" />
            <stop offset="1" stop-color="#FFFFFF" />
        </linearGradient>
    </defs>
</svg>